<svg width="651" height="478" viewBox="0 0 651 478" fill="none" xmlns="http://www.w3.org/2000/svg">
<g clip-path="url(#clip0_323_210)">
<path d="M172.683 352.734C77.4648 352.734 0 275.27 0 180.052C0 84.834 77.4648 7.36914 172.683 7.36914C200.349 7.39756 227.606 14.0586 252.167 26.7939C276.728 39.5291 297.878 57.9673 313.844 80.5625L312.21 81.7168C296.429 59.3828 275.524 41.1577 251.247 28.5696C226.97 15.9815 200.029 9.39731 172.683 9.36914C78.5684 9.36914 2 85.9375 2 180.052C2 274.166 78.5684 350.734 172.683 350.734C198.9 350.82 224.78 344.826 248.29 333.223C271.8 321.62 292.3 304.724 308.179 283.862L309.765 285.079C293.7 306.185 272.96 323.279 249.175 335.018C225.39 346.757 199.207 352.821 172.683 352.734V352.734Z" fill="#E6E6E6"/>
<path d="M244.072 151.134C242.179 151.134 240.329 150.572 238.755 149.521C237.18 148.469 235.954 146.974 235.229 145.225C234.505 143.476 234.315 141.551 234.684 139.694C235.054 137.838 235.965 136.132 237.304 134.793C238.643 133.455 240.348 132.543 242.205 132.174C244.062 131.804 245.986 131.994 247.736 132.718C249.485 133.443 250.98 134.67 252.031 136.244C253.083 137.818 253.644 139.669 253.644 141.562C253.644 144.1 252.636 146.535 250.841 148.33C249.046 150.125 246.611 151.134 244.072 151.134V151.134Z" fill="#E6E6E6"/>
<path d="M247.411 143.565L245.408 141.562L247.411 139.559C247.499 139.471 247.569 139.367 247.617 139.253C247.665 139.138 247.689 139.015 247.69 138.891C247.69 138.766 247.665 138.643 247.618 138.528C247.57 138.414 247.501 138.309 247.413 138.221C247.325 138.134 247.221 138.064 247.106 138.016C246.991 137.969 246.868 137.945 246.744 137.945C246.619 137.945 246.496 137.97 246.382 138.018C246.267 138.065 246.163 138.135 246.075 138.224L244.072 140.227L242.069 138.224C241.892 138.046 241.652 137.947 241.402 137.947C241.151 137.947 240.911 138.046 240.734 138.224C240.557 138.401 240.458 138.641 240.458 138.891C240.458 139.142 240.557 139.382 240.734 139.559L242.737 141.562L240.734 143.565C240.558 143.742 240.459 143.982 240.46 144.232C240.46 144.482 240.56 144.721 240.736 144.898C240.913 145.075 241.153 145.174 241.402 145.175C241.652 145.175 241.892 145.076 242.069 144.9L244.072 142.897L246.075 144.9C246.163 144.988 246.267 145.057 246.382 145.105C246.496 145.152 246.619 145.177 246.743 145.177C246.867 145.177 246.99 145.152 247.104 145.105C247.219 145.057 247.323 144.988 247.411 144.9C247.498 144.813 247.568 144.708 247.615 144.594C247.663 144.479 247.687 144.357 247.687 144.233C247.687 144.109 247.663 143.986 247.615 143.871C247.568 143.757 247.498 143.653 247.411 143.565Z" fill="white"/>
<path d="M196.468 38.0975C206.989 38.0975 215.517 29.5691 215.517 19.0487C215.517 8.52842 206.989 0 196.468 0C185.948 0 177.419 8.52842 177.419 19.0487C177.419 29.5691 185.948 38.0975 196.468 38.0975Z" fill="#E6E6E6"/>
<path d="M193.869 28.9627C193.54 28.9627 193.216 28.8861 192.922 28.7389C192.627 28.5918 192.372 28.3782 192.174 28.1149L186.977 21.1858C186.811 20.9632 186.689 20.7099 186.62 20.4403C186.551 20.1708 186.536 19.8902 186.575 19.6148C186.614 19.3393 186.708 19.0743 186.849 18.8349C186.991 18.5955 187.179 18.3863 187.401 18.2194C187.624 18.0524 187.877 17.931 188.147 17.8619C188.416 17.7929 188.697 17.7776 188.972 17.817C189.248 17.8563 189.513 17.9495 189.752 18.0913C189.992 18.2331 190.201 18.4206 190.368 18.6432L193.768 23.1761L202.5 10.0779C202.813 9.61441 203.297 9.2937 203.846 9.18579C204.396 9.07787 204.965 9.1915 205.431 9.50189C205.896 9.81228 206.22 10.2942 206.332 10.8425C206.443 11.3909 206.333 11.9611 206.026 12.4287L195.632 28.0191C195.444 28.301 195.192 28.5338 194.895 28.6979C194.598 28.8619 194.267 28.9525 193.928 28.962L193.869 28.9627Z" fill="white"/>
<path d="M219.792 53.4146H173.985C171.185 53.4146 168.915 55.6842 168.915 58.4841V60.3085C168.915 63.1083 171.185 65.378 173.985 65.378H219.792C222.592 65.378 224.861 63.1083 224.861 60.3085V58.4841C224.861 55.6842 222.592 53.4146 219.792 53.4146Z" fill="#E6E6E6"/>
<path d="M248.205 77.3413H145.571C142.772 77.3413 140.502 79.611 140.502 82.4108V84.2353C140.502 87.0351 142.772 89.3048 145.571 89.3048H248.205C251.005 89.3048 253.275 87.0351 253.275 84.2353V82.4108C253.275 79.611 251.005 77.3413 248.205 77.3413Z" fill="#E6E6E6"/>
<path d="M248.205 101.269H145.571C142.772 101.269 140.502 103.538 140.502 106.338V108.163C140.502 110.962 142.772 113.232 145.571 113.232H248.205C251.005 113.232 253.275 110.962 253.275 108.163V106.338C253.275 103.538 251.005 101.269 248.205 101.269Z" fill="#E6E6E6"/>
<path d="M185.779 356.381C183.886 356.381 182.035 355.82 180.461 354.768C178.887 353.716 177.66 352.221 176.936 350.472C176.211 348.723 176.022 346.799 176.391 344.942C176.76 343.085 177.672 341.38 179.011 340.041C180.349 338.702 182.055 337.791 183.912 337.421C185.768 337.052 187.693 337.241 189.442 337.966C191.191 338.69 192.686 339.917 193.738 341.491C194.79 343.066 195.351 344.916 195.351 346.809C195.351 349.348 194.343 351.783 192.547 353.578C190.752 355.373 188.318 356.381 185.779 356.381V356.381Z" fill="#E6E6E6"/>
<path d="M189.117 348.812L187.114 346.809L189.117 344.806C189.294 344.629 189.394 344.389 189.394 344.139C189.394 343.888 189.294 343.648 189.117 343.471C188.94 343.294 188.7 343.194 188.45 343.194C188.199 343.194 187.959 343.294 187.782 343.471L185.779 345.474L183.776 343.471C183.599 343.294 183.359 343.194 183.108 343.194C182.858 343.194 182.618 343.294 182.441 343.471C182.264 343.648 182.164 343.888 182.164 344.139C182.164 344.389 182.264 344.629 182.441 344.806L184.444 346.809L182.441 348.812C182.264 348.989 182.164 349.229 182.164 349.48C182.164 349.73 182.264 349.97 182.441 350.148C182.618 350.325 182.858 350.424 183.108 350.424C183.359 350.424 183.599 350.325 183.776 350.148L185.779 348.145L187.782 350.148C187.959 350.325 188.199 350.424 188.45 350.424C188.7 350.424 188.94 350.325 189.117 350.148C189.294 349.97 189.394 349.73 189.394 349.48C189.394 349.229 189.294 348.989 189.117 348.812V348.812Z" fill="white"/>
<path d="M138.175 243.345C148.695 243.345 157.223 234.817 157.223 224.296C157.223 213.776 148.695 205.248 138.175 205.248C127.654 205.248 119.126 213.776 119.126 224.296C119.126 234.817 127.654 243.345 138.175 243.345Z" fill="#E6E6E6"/>
<path d="M135.576 234.21C135.247 234.21 134.922 234.134 134.628 233.986C134.334 233.839 134.078 233.626 133.881 233.362L128.684 226.433C128.517 226.211 128.396 225.957 128.327 225.688C128.257 225.418 128.242 225.138 128.282 224.862C128.321 224.587 128.414 224.322 128.556 224.082C128.698 223.843 128.885 223.634 129.108 223.467C129.33 223.3 129.584 223.178 129.853 223.109C130.123 223.04 130.403 223.025 130.679 223.064C130.954 223.104 131.219 223.197 131.459 223.339C131.698 223.481 131.907 223.668 132.074 223.891L135.474 228.424L144.206 215.325C144.36 215.092 144.558 214.891 144.789 214.734C145.021 214.578 145.281 214.468 145.555 214.413C145.829 214.357 146.111 214.356 146.385 214.41C146.659 214.464 146.92 214.571 147.153 214.726C147.385 214.881 147.585 215.081 147.74 215.313C147.895 215.545 148.003 215.806 148.056 216.08C148.11 216.355 148.11 216.637 148.054 216.911C147.998 217.185 147.889 217.445 147.733 217.676L137.339 233.267C137.151 233.549 136.898 233.781 136.602 233.945C136.305 234.109 135.973 234.2 135.635 234.209L135.576 234.21Z" fill="white"/>
<path d="M161.499 258.662H115.692C112.892 258.662 110.622 260.932 110.622 263.732V265.556C110.622 268.356 112.892 270.626 115.692 270.626H161.499C164.299 270.626 166.568 268.356 166.568 265.556V263.732C166.568 260.932 164.299 258.662 161.499 258.662Z" fill="#E6E6E6"/>
<path d="M189.912 282.589H87.278C84.4782 282.589 82.2085 284.859 82.2085 287.658V289.483C82.2085 292.283 84.4782 294.552 87.278 294.552H189.912C192.712 294.552 194.981 292.283 194.981 289.483V287.658C194.981 284.859 192.712 282.589 189.912 282.589Z" fill="#E6E6E6"/>
<path d="M189.912 306.516H87.278C84.4782 306.516 82.2085 308.785 82.2085 311.585V313.41C82.2085 316.209 84.4782 318.479 87.278 318.479H189.912C192.712 318.479 194.981 316.209 194.981 313.41V311.585C194.981 308.785 192.712 306.516 189.912 306.516Z" fill="#E6E6E6"/>
<path d="M383.789 315.542C381.175 315.542 378.62 314.766 376.446 313.314C374.272 311.862 372.578 309.797 371.577 307.382C370.577 304.967 370.315 302.309 370.825 299.745C371.335 297.181 372.594 294.826 374.443 292.977C376.291 291.128 378.647 289.869 381.211 289.359C383.775 288.849 386.432 289.111 388.848 290.112C391.263 291.112 393.327 292.806 394.78 294.98C396.232 297.154 397.007 299.709 397.007 302.324C397.007 305.829 395.615 309.191 393.136 311.67C390.657 314.149 387.295 315.542 383.789 315.542V315.542Z" fill="#E6E6E6"/>
<path d="M388.399 305.089L385.633 302.323L388.399 299.557C388.644 299.313 388.781 298.981 388.781 298.635C388.781 298.29 388.644 297.958 388.399 297.713C388.155 297.469 387.823 297.332 387.477 297.332C387.131 297.332 386.8 297.469 386.555 297.713L383.789 300.479L381.023 297.713C380.779 297.469 380.447 297.332 380.101 297.332C379.756 297.332 379.424 297.469 379.179 297.713C378.935 297.958 378.797 298.29 378.797 298.635C378.797 298.981 378.935 299.313 379.179 299.557L381.945 302.323L379.179 305.089C378.935 305.334 378.797 305.666 378.797 306.011C378.797 306.357 378.935 306.689 379.179 306.933C379.424 307.178 379.756 307.315 380.101 307.315C380.447 307.315 380.779 307.178 381.023 306.933L383.789 304.167L386.555 306.933C386.8 307.178 387.131 307.315 387.477 307.315C387.823 307.315 388.155 307.178 388.399 306.933C388.644 306.689 388.781 306.357 388.781 306.011C388.781 305.666 388.644 305.334 388.399 305.089L388.399 305.089Z" fill="white"/>
<path d="M326.2 159.449C340.727 159.449 352.504 147.672 352.504 133.144C352.504 118.617 340.727 106.84 326.2 106.84C311.672 106.84 299.895 118.617 299.895 133.144C299.895 147.672 311.672 159.449 326.2 159.449Z" fill="#FFDEA0"/>
<path d="M322.611 146.835C322.157 146.835 321.709 146.729 321.302 146.526C320.896 146.323 320.543 146.028 320.27 145.664L313.094 136.096C312.863 135.788 312.696 135.438 312.6 135.066C312.505 134.694 312.484 134.307 312.538 133.926C312.593 133.546 312.721 133.18 312.917 132.849C313.113 132.519 313.372 132.23 313.679 131.999C313.987 131.769 314.336 131.601 314.709 131.506C315.081 131.41 315.468 131.389 315.849 131.444C316.229 131.498 316.595 131.627 316.926 131.823C317.256 132.018 317.545 132.277 317.776 132.585L322.471 138.844L334.529 120.757C334.742 120.437 335.016 120.162 335.335 119.948C335.655 119.734 336.013 119.585 336.39 119.51C336.767 119.435 337.155 119.434 337.532 119.509C337.909 119.583 338.267 119.731 338.587 119.945C338.907 120.158 339.182 120.432 339.395 120.751C339.609 121.071 339.758 121.429 339.833 121.806C339.909 122.183 339.909 122.571 339.834 122.948C339.76 123.325 339.611 123.683 339.398 124.003L325.046 145.532C324.786 145.921 324.437 146.243 324.027 146.469C323.618 146.696 323.16 146.821 322.692 146.834C322.665 146.834 322.638 146.835 322.611 146.835Z" fill="white"/>
<path d="M360.339 180.6H293.221C290.422 180.6 288.152 182.87 288.152 185.67V192.051C288.152 194.851 290.422 197.121 293.221 197.121H360.339C363.139 197.121 365.409 194.851 365.409 192.051V185.67C365.409 182.87 363.139 180.6 360.339 180.6Z" fill="#25252D"/>
<path d="M399.575 213.641H253.985C251.185 213.641 248.916 215.911 248.916 218.711V225.092C248.916 227.892 251.185 230.162 253.985 230.162H399.575C402.375 230.162 404.644 227.892 404.644 225.092V218.711C404.644 215.911 402.375 213.641 399.575 213.641Z" fill="#25252D"/>
<path d="M399.575 246.682H253.985C251.185 246.682 248.916 248.952 248.916 251.752V258.133C248.916 260.933 251.185 263.203 253.985 263.203H399.575C402.375 263.203 404.644 260.933 404.644 258.133V251.752C404.644 248.952 402.375 246.682 399.575 246.682Z" fill="#25252D"/>
<path d="M450.676 463.637L437.92 463.636L431.851 414.433L450.679 414.434L450.676 463.637Z" fill="#FFB6B6"/>
<path d="M450.336 459.47L436.716 453.93L436.326 453.771L428.806 459.47C424.56 459.471 420.488 461.158 417.486 464.16C414.484 467.163 412.797 471.235 412.796 475.48V476H453.926V459.47H450.336Z" fill="black"/>
<path d="M558.496 452.952L546.314 456.737L525.916 411.551L543.896 405.965L558.496 452.952Z" fill="#FFB6B6"/>
<path d="M556.934 449.074L542.284 447.826L541.864 447.789L536.374 455.464C532.32 456.725 528.932 459.544 526.956 463.302C524.98 467.06 524.577 471.449 525.837 475.504L525.991 476.001L565.268 463.794L560.363 448.009L556.934 449.074Z" fill="black"/>
<path d="M507.456 211.586L512.644 226.341V234.318L511.921 243.089L519.952 272.342L526.251 336.851L557.952 432.342L533.644 439.342L471.585 283.319L451.983 441.132L429.754 440.539C429.754 440.539 425.952 431.343 426.952 426.343C427.952 421.343 427.952 427.343 427.952 421.343C427.952 415.343 423.616 417.949 426.784 413.146C429.951 408.342 429.557 404.138 429.754 401.24C429.951 398.343 427.952 281.342 427.952 277.342C427.952 273.342 427.259 274.219 427.605 270.281C427.951 266.342 432.346 267.961 431.149 261.152C429.952 254.342 429.557 255.533 429.754 250.438C429.951 245.342 432.707 215.468 432.707 215.468L507.456 211.586Z" fill="black"/>
<path d="M424.262 216.386L468.824 173.411L481.176 138.439L462.957 130.517C453.599 139.481 443.484 167.401 443.484 167.401L412.819 206.414C412.58 206.496 412.342 206.583 412.106 206.687C410.725 207.296 409.524 208.251 408.62 209.46C407.716 210.668 407.139 212.09 406.945 213.587C406.75 215.084 406.945 216.606 407.511 218.005C408.077 219.405 408.994 220.634 410.174 221.576C411.354 222.517 412.757 223.139 414.247 223.379C415.737 223.62 417.264 223.473 418.681 222.951C420.097 222.429 421.355 221.551 422.333 220.401C423.31 219.251 423.975 217.868 424.262 216.386V216.386Z" fill="#FFB8B8"/>
<path d="M457.831 134.422L480.94 141.758L481.027 141.744C489.628 140.303 496.765 126.255 501.237 114.724C502.709 110.921 502.681 106.701 501.16 102.917C499.64 99.133 496.739 96.0678 493.044 94.3408C490.31 93.0852 487.28 92.6194 484.295 92.996C481.31 93.3726 478.49 94.5765 476.154 96.4718L464.288 106.168L457.831 134.422Z" fill="#FFDEA0"/>
<path d="M511.382 230.542L511.517 230.362C518.727 220.8 508.866 197.12 507.375 193.686L514.079 191.7L512.911 178.935L512.348 173.244L517.56 168.294L517.578 168.167L521.163 142.656L525.853 125.772C527.621 119.389 527.658 112.65 525.961 106.248C524.264 99.8456 520.894 94.0102 516.197 89.3407L506.608 79.8208L495.121 61.84L475.86 61.3428L468.934 73.6464C462.493 74.9609 456.718 78.4933 452.613 83.6283C448.509 88.7633 446.336 95.1754 446.474 101.748L447.126 134.502L440.215 175.085L440.021 182.457L433.238 189.615L434.492 196.852L429.418 198.873L426.935 209.156C425.986 210.342 419.725 218.257 419.668 220.463C419.66 220.794 419.896 221.121 420.411 221.489C424.464 224.389 447.117 230.672 457.312 226.895C468.171 222.875 510.732 230.425 511.161 230.502L511.382 230.542Z" fill="#FFDEA0"/>
<path d="M464.167 126.707L454.329 107.092C440.048 108.068 411.705 124.58 411.705 124.58L358.078 135.949C356.49 135.339 354.768 135.157 353.087 135.424C351.406 135.69 349.825 136.394 348.503 137.465C347.18 138.537 346.164 139.938 345.555 141.527C344.946 143.117 344.767 144.838 345.035 146.519C345.303 148.2 346.009 149.78 347.082 151.101C348.156 152.422 349.558 153.437 351.148 154.044C352.738 154.651 354.46 154.828 356.14 154.558C357.821 154.288 359.4 153.58 360.72 152.505L428.936 147.615L464.167 126.707Z" fill="#FFB8B8"/>
<path d="M460.2 129.928L485.895 110.833L490.421 94.522C491.298 91.3167 491.26 87.93 490.314 84.7447C489.367 81.5594 487.548 78.7023 485.062 76.4965V76.4965C481.673 73.529 477.284 71.9592 472.781 72.1045C468.279 72.2497 463.999 74.0992 460.808 77.279C451.139 86.9305 440.11 100.395 442.479 109.732L442.503 109.827L460.2 129.928Z" fill="#FFDEA0"/>
<path d="M486.125 56.884C498.744 56.884 508.973 46.6543 508.973 34.0353C508.973 21.4163 498.744 11.1865 486.125 11.1865C473.506 11.1865 463.276 21.4163 463.276 34.0353C463.276 46.6543 473.506 56.884 486.125 56.884Z" fill="#FFB8B8"/>
<path d="M501.161 57.9311C497.34 56.136 492.876 57.2269 488.657 57.3929C484.438 57.5589 479.326 55.9684 478.43 51.8421C477.769 48.791 479.758 45.4469 478.504 42.5877C477.137 39.4696 473.034 39.0258 469.743 38.1528C465.618 36.9609 461.98 34.4854 459.358 31.0857C456.735 27.686 455.264 23.5389 455.159 19.2465C454.93 20.9502 457.845 21.5098 458.803 20.0822C459.76 18.6547 459.101 16.6788 458.045 15.3223C456.989 13.9659 455.564 12.8825 454.768 11.3591C453.972 9.83573 454.127 7.57327 455.681 6.84014C456.478 8.4485 457.607 9.86966 458.993 11.0099C460.379 12.1501 461.991 12.9835 463.723 13.455C463.016 11.3068 464.016 8.8917 465.625 7.30279C467.335 5.8141 469.305 4.65398 471.436 3.88079C476.703 1.59766 482.852 -0.674307 487.953 1.95989C489.27 2.65291 490.413 3.63446 491.297 4.83123C492.181 6.028 492.783 7.40908 493.059 8.87129C502.494 9.66906 512.182 19.8892 511.645 29.3424C511.066 39.519 510.645 40.3424 502.173 57.4674" fill="black"/>
<path d="M615.62 476.587H582.433L582.291 476.328C581.866 475.559 581.457 474.743 581.074 473.905C577.656 466.587 576.211 458.217 574.936 450.832L573.976 445.266C573.86 444.591 573.947 443.898 574.227 443.274C574.507 442.65 574.968 442.124 575.549 441.762C576.13 441.401 576.805 441.222 577.489 441.247C578.172 441.272 578.833 441.501 579.386 441.903C584.429 445.573 589.475 449.24 594.522 452.902C596.433 454.293 598.616 455.902 600.706 457.642C600.908 456.662 601.119 455.68 601.33 454.711C601.475 454.042 601.817 453.432 602.311 452.958C602.806 452.485 603.43 452.169 604.104 452.053C604.779 451.936 605.473 452.023 606.098 452.304C606.722 452.584 607.249 453.044 607.611 453.625L611.493 459.863C614.325 464.419 616.825 468.908 616.316 473.75C616.318 473.809 616.314 473.868 616.302 473.926C616.201 474.721 616.012 475.503 615.739 476.257L615.62 476.587Z" fill="#F0F0F0"/>
<path d="M648.929 477.305L333.571 477.612C333.257 477.61 332.955 477.484 332.733 477.261C332.511 477.038 332.387 476.736 332.387 476.421C332.387 476.107 332.511 475.805 332.733 475.582C332.955 475.358 333.257 475.232 333.571 475.231L648.929 474.923C649.244 474.925 649.545 475.051 649.767 475.274C649.989 475.497 650.114 475.799 650.114 476.114C650.114 476.429 649.989 476.731 649.767 476.954C649.545 477.177 649.244 477.303 648.929 477.305V477.305Z" fill="#CACACA"/>
</g>
<defs>
<clipPath id="clip0_323_210">
<rect width="650.114" height="477.612" fill="white"/>
</clipPath>
</defs>
</svg>
