<?xml version="1.0" encoding="UTF-8"?>
<svg width="700pt" height="700pt" version="1.1" viewBox="0 0 700 700" xmlns="http://www.w3.org/2000/svg" xmlns:xlink="http://www.w3.org/1999/xlink">
 <defs>
  <symbol id="v" overflow="visible">
   <path d="m3.1562-0.1875c-0.16797 0.085938-0.33984 0.14844-0.51562 0.1875-0.17969 0.039062-0.35938 0.0625-0.54688 0.0625-0.57422 0-1.0273-0.15625-1.3594-0.46875-0.33594-0.32031-0.5-0.75391-0.5-1.2969 0-0.55078 0.16406-0.98438 0.5-1.2969 0.33203-0.32031 0.78516-0.48438 1.3594-0.48438 0.1875 0 0.36719 0.023437 0.54688 0.0625 0.17578 0.042969 0.34766 0.10547 0.51562 0.1875v0.70312c-0.16797-0.10156-0.33594-0.17969-0.5-0.23438-0.15625-0.050781-0.32422-0.078125-0.5-0.078125-0.3125 0-0.5625 0.10156-0.75 0.29688-0.17969 0.19922-0.26562 0.48047-0.26562 0.84375 0 0.34375 0.085937 0.62109 0.26562 0.82812 0.1875 0.19922 0.4375 0.29688 0.75 0.29688 0.17578 0 0.34375-0.023437 0.5-0.078125 0.16406-0.050781 0.33203-0.12891 0.5-0.23438z"/>
  </symbol>
  <symbol id="d" overflow="visible">
   <path d="m2.3125-1.875c-0.074219-0.03125-0.14844-0.050781-0.21875-0.0625-0.074219-0.019531-0.14844-0.03125-0.21875-0.03125-0.21094 0-0.37109 0.070312-0.48438 0.20312-0.11719 0.13672-0.17188 0.32812-0.17188 0.57812v1.1875h-0.82812v-2.5781h0.82812v0.42188c0.10156-0.16406 0.22266-0.28516 0.35938-0.35938 0.13281-0.082031 0.30078-0.125 0.5-0.125 0.019531 0 0.046875 0.007813 0.078125 0.015625 0.039062 0 0.085938 0.007812 0.14062 0.015625z"/>
  </symbol>
  <symbol id="a" overflow="visible">
   <path d="m2.9688-1.2969v0.23438h-1.9219c0.007813 0.19922 0.070313 0.34375 0.1875 0.4375 0.125 0.09375 0.29688 0.14062 0.51562 0.14062 0.17578 0 0.35156-0.023437 0.53125-0.078125 0.17578-0.050781 0.36328-0.12891 0.5625-0.23438v0.64062c-0.19922 0.074219-0.39844 0.125-0.59375 0.15625-0.1875 0.039062-0.38281 0.0625-0.57812 0.0625-0.46875 0-0.83594-0.11328-1.0938-0.34375-0.25-0.23828-0.375-0.57031-0.375-1 0-0.41406 0.125-0.74219 0.375-0.98438 0.25781-0.25 0.60938-0.375 1.0469-0.375 0.40625 0 0.72656 0.125 0.96875 0.375 0.25 0.24219 0.375 0.5625 0.375 0.96875zm-0.84375-0.26562c0-0.15625-0.046875-0.28125-0.14062-0.375-0.09375-0.10156-0.21484-0.15625-0.35938-0.15625-0.15625 0-0.28906 0.046875-0.39062 0.14062-0.09375 0.09375-0.15625 0.22656-0.1875 0.39062z"/>
  </symbol>
  <symbol id="k" overflow="visible">
   <path d="m1.5469-1.1562c-0.16797 0-0.29688 0.03125-0.39062 0.09375-0.085938 0.054688-0.125 0.13672-0.125 0.25 0 0.10547 0.03125 0.1875 0.09375 0.25 0.070312 0.054688 0.17188 0.078125 0.29688 0.078125 0.15625 0 0.28516-0.050781 0.39062-0.15625 0.10156-0.11328 0.15625-0.25391 0.15625-0.42188v-0.09375zm1.25-0.3125v1.4688h-0.82812v-0.375c-0.10547 0.15625-0.23047 0.27344-0.375 0.34375-0.13672 0.0625-0.30469 0.09375-0.5 0.09375-0.26172 0-0.47656-0.078125-0.64062-0.23438-0.16797-0.15625-0.25-0.35156-0.25-0.59375 0-0.30078 0.10156-0.51953 0.3125-0.65625 0.20703-0.14453 0.53125-0.21875 0.96875-0.21875h0.48438v-0.0625c0-0.13281-0.054688-0.23438-0.15625-0.29688-0.09375-0.0625-0.25-0.09375-0.46875-0.09375-0.17969 0-0.34375 0.023438-0.5 0.0625-0.14844 0.03125-0.28906 0.085938-0.42188 0.15625v-0.625c0.17578-0.039062 0.35156-0.070312 0.53125-0.09375 0.17578-0.03125 0.35156-0.046875 0.53125-0.046875 0.46875 0 0.80078 0.09375 1 0.28125 0.20703 0.1875 0.3125 0.48438 0.3125 0.89062z"/>
  </symbol>
  <symbol id="c" overflow="visible">
   <path d="m1.2969-3.2969v0.71875h0.84375v0.59375h-0.84375v1.0938c0 0.11719 0.019531 0.19531 0.0625 0.23438 0.050781 0.042969 0.14453 0.0625 0.28125 0.0625h0.42188v0.59375h-0.70312c-0.32422 0-0.55469-0.066406-0.6875-0.20312-0.13672-0.13281-0.20312-0.36328-0.20312-0.6875v-1.0938h-0.40625v-0.59375h0.40625v-0.71875z"/>
  </symbol>
  <symbol id="j" overflow="visible">
   <path d="m2.1406-2.2031v-1.375h0.82812v3.5781h-0.82812v-0.375c-0.11719 0.15625-0.24219 0.27344-0.375 0.34375-0.13672 0.0625-0.29297 0.09375-0.46875 0.09375-0.3125 0-0.57422-0.125-0.78125-0.375-0.19922-0.25-0.29688-0.57031-0.29688-0.96875 0-0.39453 0.097656-0.71875 0.29688-0.96875 0.20703-0.25781 0.46875-0.39062 0.78125-0.39062 0.17578 0 0.33203 0.039063 0.46875 0.10938 0.13281 0.074219 0.25781 0.18359 0.375 0.32812zm-0.53125 1.6719c0.16406 0 0.29688-0.0625 0.39062-0.1875 0.09375-0.13281 0.14062-0.32031 0.14062-0.5625 0-0.25-0.046875-0.4375-0.14062-0.5625s-0.22656-0.1875-0.39062-0.1875c-0.17969 0-0.3125 0.0625-0.40625 0.1875s-0.14062 0.3125-0.14062 0.5625c0 0.24219 0.046875 0.42969 0.14062 0.5625 0.09375 0.125 0.22656 0.1875 0.40625 0.1875z"/>
  </symbol>
  <symbol id="i" overflow="visible">
   <path d="m1.7656-0.53125c0.17578 0 0.3125-0.0625 0.40625-0.1875 0.09375-0.13281 0.14062-0.32031 0.14062-0.5625 0-0.25-0.046875-0.4375-0.14062-0.5625s-0.23047-0.1875-0.40625-0.1875c-0.17969 0-0.3125 0.0625-0.40625 0.1875s-0.14062 0.3125-0.14062 0.5625c0 0.24219 0.046875 0.42969 0.14062 0.5625 0.09375 0.125 0.22656 0.1875 0.40625 0.1875zm-0.54688-1.6719c0.11328-0.14453 0.23828-0.25391 0.375-0.32812 0.13281-0.070312 0.28906-0.10938 0.46875-0.10938 0.32031 0 0.58203 0.13281 0.78125 0.39062 0.20703 0.25 0.3125 0.57422 0.3125 0.96875 0 0.39844-0.10547 0.71875-0.3125 0.96875-0.19922 0.25-0.46094 0.375-0.78125 0.375-0.17969 0-0.33594-0.03125-0.46875-0.09375-0.13672-0.070312-0.26172-0.1875-0.375-0.34375v0.375h-0.82812v-3.5781h0.82812z"/>
  </symbol>
  <symbol id="h" overflow="visible">
   <path d="m0.0625-2.5781h0.8125l0.70312 1.75 0.57812-1.75h0.82812l-1.0781 2.8281c-0.11719 0.28125-0.24609 0.47656-0.39062 0.59375-0.14844 0.11328-0.33594 0.17188-0.5625 0.17188h-0.48438v-0.54688h0.26562c0.13281 0 0.23438-0.023438 0.29688-0.0625 0.0625-0.042969 0.11328-0.12109 0.15625-0.23438l0.015625-0.078125z"/>
  </symbol>
  <symbol id="g" overflow="visible">
   <path d="m-0.046875-3.4219h0.96875l0.78125 1.2188 0.78125-1.2188h0.96875l-1.3125 1.9844v1.4375h-0.875v-1.4375z"/>
  </symbol>
  <symbol id="b" overflow="visible">
   <path d="m1.625-2.0469c-0.1875 0-0.32812 0.070313-0.42188 0.20312-0.09375 0.125-0.14062 0.3125-0.14062 0.5625s0.046875 0.44531 0.14062 0.57812c0.09375 0.125 0.23438 0.1875 0.42188 0.1875 0.17578 0 0.3125-0.0625 0.40625-0.1875 0.09375-0.13281 0.14062-0.32812 0.14062-0.57812s-0.046875-0.4375-0.14062-0.5625c-0.09375-0.13281-0.23047-0.20312-0.40625-0.20312zm0-0.59375c0.4375 0 0.78125 0.12109 1.0312 0.35938 0.25 0.24219 0.375 0.57422 0.375 1 0 0.41797-0.125 0.74609-0.375 0.98438-0.25 0.24219-0.59375 0.35938-1.0312 0.35938-0.44922 0-0.79688-0.11719-1.0469-0.35938-0.25-0.23828-0.375-0.56641-0.375-0.98438 0-0.42578 0.125-0.75781 0.375-1 0.25-0.23828 0.59766-0.35938 1.0469-0.35938z"/>
  </symbol>
  <symbol id="f" overflow="visible">
   <path d="m0.375-1v-1.5781h0.8125v0.26562 0.53125 0.40625c0 0.21094 0.003906 0.35938 0.015625 0.45312 0.007813 0.09375 0.03125 0.16406 0.0625 0.20312 0.03125 0.054688 0.070313 0.09375 0.125 0.125 0.050781 0.023438 0.11328 0.03125 0.1875 0.03125 0.17578 0 0.3125-0.0625 0.40625-0.1875 0.09375-0.13281 0.14062-0.31641 0.14062-0.54688v-1.2812h0.82812v2.5781h-0.82812v-0.375c-0.125 0.15625-0.25781 0.27344-0.39062 0.34375-0.13672 0.0625-0.28906 0.09375-0.45312 0.09375-0.30469 0-0.53125-0.085938-0.6875-0.26562-0.14844-0.1875-0.21875-0.45312-0.21875-0.79688z"/>
  </symbol>
  <symbol id="u" overflow="visible">
   <path d="m0.39062-3.5781h0.82812v3.5781h-0.82812z"/>
  </symbol>
  <symbol id="t" overflow="visible">
   <path d="m0.4375-3.4219h0.875v1.25l1.2812-1.25h1.0156l-1.6406 1.6094 1.8125 1.8125h-1.0938l-1.375-1.3438v1.3438h-0.875z"/>
  </symbol>
  <symbol id="s" overflow="visible">
   <path d="m0.17188-2.5781h0.79688l0.42188 1.7812 0.4375-1.7812h0.6875l0.4375 1.7656 0.42188-1.7656h0.8125l-0.6875 2.5781h-0.89062l-0.4375-1.7656-0.4375 1.7656h-0.89062z"/>
  </symbol>
  <symbol id="e" overflow="visible">
   <path d="m2.9844-1.5625v1.5625h-0.82812v-1.2031c0-0.21875-0.007812-0.36719-0.015625-0.45312-0.011719-0.082031-0.027344-0.14453-0.046875-0.1875-0.03125-0.050781-0.078125-0.09375-0.14062-0.125-0.054687-0.03125-0.11719-0.046875-0.1875-0.046875-0.16797 0-0.30469 0.070313-0.40625 0.20312-0.09375 0.13672-0.14062 0.32031-0.14062 0.54688v1.2656h-0.82812v-2.5781h0.82812v0.375c0.125-0.14453 0.25391-0.25391 0.39062-0.32812 0.14453-0.070312 0.30078-0.10938 0.46875-0.10938 0.28906 0 0.51562 0.09375 0.67188 0.28125 0.15625 0.17969 0.23438 0.44531 0.23438 0.79688z"/>
  </symbol>
  <symbol id="r" overflow="visible">
   <path d="m2.0938-3.5781v0.54688h-0.46875c-0.11719 0-0.19531 0.023438-0.23438 0.0625-0.042969 0.042969-0.0625 0.11719-0.0625 0.21875v0.17188h0.6875v0.59375h-0.6875v1.9844h-0.82812v-1.9844h-0.40625v-0.59375h0.40625v-0.17188c0-0.28125 0.078125-0.48828 0.23438-0.625 0.15625-0.13281 0.39453-0.20312 0.71875-0.20312z"/>
  </symbol>
  <symbol id="q" overflow="visible">
   <path d="m2.7812-2.1406c0.10156-0.16406 0.22266-0.28906 0.35938-0.375 0.14453-0.082031 0.30469-0.125 0.48438-0.125 0.28906 0 0.51562 0.09375 0.67188 0.28125 0.15625 0.17969 0.23438 0.44531 0.23438 0.79688v1.5625h-0.82812v-1.3438-0.0625-0.09375c0-0.17578-0.027344-0.30469-0.078125-0.39062-0.054688-0.082031-0.14062-0.125-0.26562-0.125-0.15625 0-0.27734 0.070313-0.35938 0.20312-0.085938 0.125-0.125 0.30859-0.125 0.54688v1.2656h-0.82812v-1.3438c0-0.28125-0.027344-0.46094-0.078125-0.54688-0.042969-0.082031-0.13281-0.125-0.26562-0.125-0.15625 0-0.27734 0.070313-0.35938 0.20312-0.085938 0.125-0.125 0.30859-0.125 0.54688v1.2656h-0.82812v-2.5781h0.82812v0.375c0.10156-0.13281 0.21875-0.23828 0.34375-0.3125 0.13281-0.082031 0.28125-0.125 0.4375-0.125 0.17578 0 0.33203 0.046875 0.46875 0.14062 0.13281 0.085938 0.23828 0.20312 0.3125 0.35938z"/>
  </symbol>
  <symbol id="p" overflow="visible">
   <path d="m2.9844-1.5625v1.5625h-0.82812v-1.1875c0-0.22656-0.007812-0.38281-0.015625-0.46875-0.011719-0.082031-0.027344-0.14453-0.046875-0.1875-0.03125-0.050781-0.078125-0.09375-0.14062-0.125-0.054687-0.03125-0.11719-0.046875-0.1875-0.046875-0.16797 0-0.30469 0.070313-0.40625 0.20312-0.09375 0.13672-0.14062 0.32031-0.14062 0.54688v1.2656h-0.82812v-3.5781h0.82812v1.375c0.125-0.14453 0.25391-0.25391 0.39062-0.32812 0.14453-0.070312 0.30078-0.10938 0.46875-0.10938 0.28906 0 0.51562 0.09375 0.67188 0.28125 0.15625 0.17969 0.23438 0.44531 0.23438 0.79688z"/>
  </symbol>
  <symbol id="o" overflow="visible">
   <path d="m0.4375-3.4219h0.98438l1.25 2.3438v-2.3438h0.82812v3.4219h-0.98438l-1.25-2.3594v2.3594h-0.82812z"/>
  </symbol>
  <symbol id="n" overflow="visible">
   <path d="m0.4375-3.4219h1.4688c0.42578 0 0.75391 0.10156 0.98438 0.29688 0.23828 0.1875 0.35938 0.46094 0.35938 0.8125 0 0.36719-0.12109 0.64844-0.35938 0.84375-0.23047 0.1875-0.55859 0.28125-0.98438 0.28125h-0.59375v1.1875h-0.875zm0.875 0.64062v0.95312h0.5c0.16406 0 0.29688-0.039063 0.39062-0.125 0.09375-0.082031 0.14062-0.20312 0.14062-0.35938s-0.046875-0.26953-0.14062-0.34375c-0.09375-0.082031-0.22656-0.125-0.39062-0.125z"/>
  </symbol>
  <symbol id="m" overflow="visible">
   <path d="m0.39062-2.5781h0.82812v2.5312c0 0.34375-0.085938 0.60156-0.25 0.78125-0.16797 0.1875-0.40625 0.28125-0.71875 0.28125h-0.40625v-0.54688h0.14062c0.15625 0 0.25781-0.039062 0.3125-0.10938 0.0625-0.0625 0.09375-0.19922 0.09375-0.40625zm0-1h0.82812v0.67188h-0.82812z"/>
  </symbol>
  <symbol id="l" overflow="visible">
   <path d="m2.4688-2.4844v0.65625c-0.10547-0.070313-0.21484-0.125-0.32812-0.15625-0.11719-0.039063-0.23438-0.0625-0.35938-0.0625-0.23047 0-0.40625 0.070313-0.53125 0.20312-0.125 0.13672-0.1875 0.32422-0.1875 0.5625 0 0.24219 0.0625 0.42969 0.1875 0.5625 0.125 0.13672 0.30078 0.20312 0.53125 0.20312 0.13281 0 0.25781-0.019531 0.375-0.0625 0.11328-0.039063 0.21875-0.097656 0.3125-0.17188v0.67188c-0.125 0.054688-0.25781 0.085938-0.39062 0.10938-0.125 0.019531-0.25781 0.03125-0.39062 0.03125-0.46875 0-0.83594-0.11328-1.0938-0.34375-0.26172-0.23828-0.39062-0.57031-0.39062-1 0-0.42578 0.12891-0.75781 0.39062-1 0.25781-0.23828 0.625-0.35938 1.0938-0.35938 0.13281 0 0.26562 0.015625 0.39062 0.046875 0.13281 0.023438 0.26562 0.058594 0.39062 0.10938z"/>
  </symbol>
 </defs>
 <g>
  <path d="m313.73 237.15c0 10.18-8.2539 18.438-18.438 18.438-10.18 0-18.438-8.2578-18.438-18.438 0-10.184 8.2578-18.438 18.438-18.438 10.184 0 18.438 8.2539 18.438 18.438"/>
  <path d="m423.05 237.15c0 10.18-8.2578 18.438-18.438 18.438-10.184 0-18.438-8.2578-18.438-18.438 0-10.184 8.2539-18.438 18.438-18.438 10.18 0 18.438 8.2539 18.438 18.438"/>
  <path d="m349.95 391.99c-60.488 0-109.21-40.922-109.21-90.684 0-4.5156 3.9492-8.3711 8.3711-8.3711s8.3711 3.9492 8.3711 8.3711c0 40.922 41.484 73.938 92.375 73.938s92.375-33.02 92.375-73.938c0-4.5156 3.9492-8.3711 8.3711-8.3711 4.5156 0 8.3711 3.9492 8.3711 8.3711 0.19531 49.762-48.531 90.684-109.02 90.684z"/>
  <use x="70" y="574.109375" xlink:href="#v"/>
  <use x="73.453125" y="574.109375" xlink:href="#d"/>
  <use x="75.769531" y="574.109375" xlink:href="#a"/>
  <use x="78.960937" y="574.109375" xlink:href="#k"/>
  <use x="82.136719" y="574.109375" xlink:href="#c"/>
  <use x="84.382812" y="574.109375" xlink:href="#a"/>
  <use x="87.574219" y="574.109375" xlink:href="#j"/>
  <use x="92.578125" y="574.109375" xlink:href="#i"/>
  <use x="95.945312" y="574.109375" xlink:href="#h"/>
  <use x="100.648438" y="574.109375" xlink:href="#g"/>
  <use x="104.054688" y="574.109375" xlink:href="#a"/>
  <use x="107.246094" y="574.109375" xlink:href="#b"/>
  <use x="110.476562" y="574.109375" xlink:href="#f"/>
  <use x="113.824219" y="574.109375" xlink:href="#u"/>
  <use x="117.074219" y="574.109375" xlink:href="#t"/>
  <use x="120.71875" y="574.109375" xlink:href="#s"/>
  <use x="125.0625" y="574.109375" xlink:href="#b"/>
  <use x="128.296875" y="574.109375" xlink:href="#e"/>
  <use x="70" y="578.8125" xlink:href="#r"/>
  <use x="72.046875" y="578.8125" xlink:href="#d"/>
  <use x="74.367188" y="578.8125" xlink:href="#b"/>
  <use x="77.597656" y="578.8125" xlink:href="#q"/>
  <use x="84.136719" y="578.8125" xlink:href="#c"/>
  <use x="86.382812" y="578.8125" xlink:href="#p"/>
  <use x="89.734375" y="578.8125" xlink:href="#a"/>
  <use x="94.558594" y="578.8125" xlink:href="#o"/>
  <use x="98.496094" y="578.8125" xlink:href="#b"/>
  <use x="101.726562" y="578.8125" xlink:href="#f"/>
  <use x="105.078125" y="578.8125" xlink:href="#e"/>
  <use x="110.0625" y="578.8125" xlink:href="#n"/>
  <use x="113.511719" y="578.8125" xlink:href="#d"/>
  <use x="115.828125" y="578.8125" xlink:href="#b"/>
  <use x="119.0625" y="578.8125" xlink:href="#m"/>
  <use x="120.671875" y="578.8125" xlink:href="#a"/>
  <use x="123.863281" y="578.8125" xlink:href="#l"/>
  <use x="126.652344" y="578.8125" xlink:href="#c"/>
 </g>
</svg>
