<?xml version="1.0" encoding="UTF-8"?>
<svg width="700pt" height="700pt" version="1.1" viewBox="0 0 700 700" xmlns="http://www.w3.org/2000/svg" xmlns:xlink="http://www.w3.org/1999/xlink">
 <defs>
  <symbol id="u" overflow="visible">
   <path d="m3.8281-0.23438c-0.19922 0.10547-0.40625 0.18359-0.625 0.23438-0.21094 0.050781-0.43359 0.078125-0.67188 0.078125-0.6875 0-1.2344-0.19141-1.6406-0.57812-0.40625-0.38281-0.60938-0.91016-0.60938-1.5781 0-0.66406 0.20312-1.1914 0.60938-1.5781 0.40625-0.38281 0.95312-0.57812 1.6406-0.57812 0.23828 0 0.46094 0.027344 0.67188 0.078125 0.21875 0.054688 0.42578 0.13281 0.625 0.23438v0.85938c-0.21094-0.13281-0.41406-0.23438-0.60938-0.29688-0.1875-0.0625-0.38672-0.09375-0.59375-0.09375-0.38672 0-0.6875 0.125-0.90625 0.375-0.21875 0.24219-0.32812 0.57422-0.32812 1 0 0.42969 0.10938 0.76562 0.32812 1.0156 0.21875 0.24219 0.51953 0.35938 0.90625 0.35938 0.20703 0 0.40625-0.03125 0.59375-0.09375 0.19531-0.0625 0.39844-0.16016 0.60938-0.29688z"/>
  </symbol>
  <symbol id="e" overflow="visible">
   <path d="m2.7969-2.2656c-0.085937-0.039063-0.17188-0.070313-0.26562-0.09375-0.085938-0.019531-0.16797-0.03125-0.25-0.03125-0.26172 0-0.46484 0.085937-0.60938 0.25-0.13672 0.16797-0.20312 0.40234-0.20312 0.70312v1.4375h-0.98438v-3.125h0.98438v0.51562c0.13281-0.19531 0.28516-0.34375 0.45312-0.4375 0.16406-0.09375 0.36328-0.14062 0.59375-0.14062h0.10938c0.039062 0 0.097656 0.007812 0.17188 0.015625z"/>
  </symbol>
  <symbol id="a" overflow="visible">
   <path d="m3.5938-1.5625v0.28125h-2.3281c0.019531 0.23047 0.10156 0.40625 0.25 0.53125 0.14453 0.11719 0.34766 0.17188 0.60938 0.17188 0.20703 0 0.42188-0.03125 0.64062-0.09375s0.44141-0.15625 0.67188-0.28125v0.76562c-0.23047 0.085938-0.46484 0.14844-0.70312 0.1875-0.23047 0.050781-0.46484 0.078125-0.70312 0.078125-0.5625 0-1-0.14062-1.3125-0.42188-0.3125-0.28906-0.46875-0.69531-0.46875-1.2188 0-0.5 0.14844-0.89453 0.45312-1.1875 0.3125-0.28906 0.73438-0.4375 1.2656-0.4375 0.48828 0 0.87891 0.14844 1.1719 0.4375 0.30078 0.29297 0.45312 0.6875 0.45312 1.1875zm-1.0312-0.34375c0-0.1875-0.058594-0.33594-0.17188-0.45312-0.10547-0.11328-0.24609-0.17188-0.42188-0.17188-0.19922 0-0.35938 0.058594-0.48438 0.17188-0.11719 0.10547-0.1875 0.25781-0.21875 0.45312z"/>
  </symbol>
  <symbol id="d" overflow="visible">
   <path d="m1.875-1.4062c-0.21094 0-0.36719 0.039062-0.46875 0.10938-0.10547 0.074219-0.15625 0.17969-0.15625 0.3125 0 0.125 0.039062 0.22656 0.125 0.29688 0.082031 0.074219 0.20312 0.10938 0.35938 0.10938 0.1875 0 0.34375-0.066406 0.46875-0.20312 0.125-0.13281 0.1875-0.30469 0.1875-0.51562v-0.10938zm1.5312-0.375v1.7812h-1.0156v-0.46875c-0.13672 0.19922-0.28906 0.33984-0.45312 0.42188-0.16797 0.082031-0.37109 0.125-0.60938 0.125-0.32422 0-0.58594-0.09375-0.78125-0.28125-0.19922-0.1875-0.29688-0.42969-0.29688-0.73438 0-0.36328 0.125-0.62891 0.375-0.79688 0.25-0.17578 0.64453-0.26562 1.1875-0.26562h0.57812v-0.078125c0-0.15625-0.0625-0.26953-0.1875-0.34375-0.125-0.070313-0.32031-0.10938-0.57812-0.10938-0.21094 0-0.40625 0.023438-0.59375 0.0625-0.1875 0.042969-0.35938 0.10547-0.51562 0.1875v-0.75c0.21875-0.050781 0.42969-0.085938 0.64062-0.10938 0.21875-0.03125 0.4375-0.046875 0.65625-0.046875 0.5625 0 0.96875 0.10938 1.2188 0.32812s0.375 0.57812 0.375 1.0781z"/>
  </symbol>
  <symbol id="c" overflow="visible">
   <path d="m1.5625-4v0.875h1.0312v0.71875h-1.0312v1.3281c0 0.14844 0.023438 0.24609 0.078125 0.29688 0.0625 0.042969 0.17969 0.0625 0.35938 0.0625h0.51562v0.71875h-0.85938c-0.39844 0-0.67969-0.082031-0.84375-0.25-0.15625-0.16406-0.23438-0.44141-0.23438-0.82812v-1.3281h-0.5v-0.71875h0.5v-0.875z"/>
  </symbol>
  <symbol id="k" overflow="visible">
   <path d="m2.5938-2.6562v-1.6719h1.0156v4.3281h-1.0156v-0.45312c-0.13672 0.1875-0.28906 0.32422-0.45312 0.40625-0.15625 0.082031-0.34375 0.125-0.5625 0.125-0.38672 0-0.70312-0.14844-0.95312-0.45312-0.25-0.30078-0.375-0.69531-0.375-1.1875 0-0.47656 0.125-0.86719 0.375-1.1719 0.25-0.30078 0.56641-0.45312 0.95312-0.45312 0.20703 0 0.39453 0.042969 0.5625 0.125 0.16406 0.085938 0.31641 0.21875 0.45312 0.40625zm-0.65625 2.0156c0.21875 0 0.37891-0.078125 0.48438-0.23438 0.11328-0.15625 0.17188-0.38281 0.17188-0.6875 0-0.28906-0.058594-0.51562-0.17188-0.67188-0.10547-0.15625-0.26562-0.23438-0.48438-0.23438-0.21094 0-0.37109 0.078125-0.48438 0.23438-0.10547 0.15625-0.15625 0.38281-0.15625 0.67188 0 0.30469 0.050781 0.53125 0.15625 0.6875 0.11328 0.15625 0.27344 0.23438 0.48438 0.23438z"/>
  </symbol>
  <symbol id="j" overflow="visible">
   <path d="m2.1406-0.64062c0.20703 0 0.36719-0.078125 0.48438-0.23438 0.11328-0.15625 0.17188-0.38281 0.17188-0.6875 0-0.28906-0.058594-0.51562-0.17188-0.67188-0.11719-0.15625-0.27734-0.23438-0.48438-0.23438-0.21875 0-0.38672 0.078125-0.5 0.23438-0.11719 0.15625-0.17188 0.38281-0.17188 0.67188 0 0.30469 0.054688 0.53125 0.17188 0.6875 0.11328 0.15625 0.28125 0.23438 0.5 0.23438zm-0.67188-2.0156c0.14453-0.1875 0.30078-0.32031 0.46875-0.40625 0.16406-0.082031 0.35938-0.125 0.57812-0.125 0.375 0 0.6875 0.15234 0.9375 0.45312 0.25 0.30469 0.375 0.69531 0.375 1.1719 0 0.49219-0.125 0.88672-0.375 1.1875-0.25 0.30469-0.5625 0.45312-0.9375 0.45312-0.21875 0-0.41406-0.042969-0.57812-0.125-0.16797-0.082031-0.32422-0.21875-0.46875-0.40625v0.45312h-0.98438v-4.3281h0.98438z"/>
  </symbol>
  <symbol id="i" overflow="visible">
   <path d="m0.0625-3.125h1l0.84375 2.125 0.71875-2.125h0.98438l-1.3125 3.4219c-0.125 0.34375-0.27734 0.58203-0.45312 0.71875-0.17969 0.14453-0.41406 0.21875-0.70312 0.21875h-0.5625v-0.65625h0.29688c0.17578 0 0.30078-0.027344 0.375-0.078125 0.082031-0.054688 0.14453-0.15234 0.1875-0.29688l0.015625-0.078125z"/>
  </symbol>
  <symbol id="h" overflow="visible">
   <path d="m0.53125-4.1562h1.3594l0.9375 2.2188 0.95312-2.2188h1.375v4.1562h-1.0156v-3.0469l-0.96875 2.25h-0.67188l-0.95312-2.25v3.0469h-1.0156z"/>
  </symbol>
  <symbol id="f" overflow="visible">
   <path d="m3.6094-1.9062v1.9062h-1v-1.4531c0-0.26953-0.007813-0.45312-0.015625-0.54688-0.011719-0.10156-0.03125-0.17969-0.0625-0.23438-0.042969-0.0625-0.10156-0.10938-0.17188-0.14062-0.0625-0.039062-0.13672-0.0625-0.21875-0.0625-0.21094 0-0.375 0.085938-0.5 0.25-0.11719 0.15625-0.17188 0.375-0.17188 0.65625v1.5312h-0.98438v-3.125h0.98438v0.46875c0.15625-0.1875 0.31641-0.32031 0.48438-0.40625 0.16406-0.082031 0.35156-0.125 0.5625-0.125 0.36328 0 0.63281 0.10938 0.8125 0.32812 0.1875 0.21875 0.28125 0.53906 0.28125 0.95312z"/>
  </symbol>
  <symbol id="t" overflow="visible">
   <path d="m0.53125-4.1562h1.0625v4.1562h-1.0625z"/>
  </symbol>
  <symbol id="g" overflow="visible">
   <path d="m3-3.0156v0.8125c-0.13672-0.09375-0.27344-0.16016-0.40625-0.20312-0.13672-0.050781-0.27734-0.078125-0.42188-0.078125-0.28125 0-0.5 0.085937-0.65625 0.25-0.15625 0.15625-0.23438 0.38281-0.23438 0.67188 0 0.29297 0.078125 0.52344 0.23438 0.6875 0.15625 0.16797 0.375 0.25 0.65625 0.25 0.15625 0 0.30078-0.019531 0.4375-0.0625 0.14453-0.050781 0.27344-0.125 0.39062-0.21875v0.8125c-0.15625 0.0625-0.32031 0.10156-0.48438 0.125-0.15625 0.03125-0.3125 0.046875-0.46875 0.046875-0.5625 0-1.0078-0.14062-1.3281-0.42188-0.3125-0.28906-0.46875-0.69531-0.46875-1.2188 0-0.50781 0.15625-0.90625 0.46875-1.1875 0.32031-0.28906 0.76562-0.4375 1.3281-0.4375 0.15625 0 0.3125 0.015625 0.46875 0.046875 0.16406 0.023437 0.32812 0.0625 0.48438 0.125z"/>
  </symbol>
  <symbol id="b" overflow="visible">
   <path d="m1.9688-2.4844c-0.23047 0-0.40234 0.085937-0.51562 0.25-0.11719 0.15625-0.17188 0.38281-0.17188 0.67188 0 0.30469 0.054688 0.53906 0.17188 0.70312 0.11328 0.15625 0.28516 0.23438 0.51562 0.23438 0.20703 0 0.36719-0.078125 0.48438-0.23438 0.125-0.16406 0.1875-0.39844 0.1875-0.70312 0-0.28906-0.0625-0.51562-0.1875-0.67188-0.11719-0.16406-0.27734-0.25-0.48438-0.25zm0-0.70312c0.53125 0 0.94531 0.14844 1.25 0.4375 0.30078 0.28125 0.45312 0.67969 0.45312 1.1875 0 0.52344-0.15234 0.92969-0.45312 1.2188-0.30469 0.28125-0.71875 0.42188-1.25 0.42188-0.54297 0-0.96484-0.14062-1.2656-0.42188-0.30469-0.28906-0.45312-0.69531-0.45312-1.2188 0-0.50781 0.14844-0.90625 0.45312-1.1875 0.30078-0.28906 0.72266-0.4375 1.2656-0.4375z"/>
  </symbol>
  <symbol id="s" overflow="visible">
   <path d="m2.9219-3.0156v0.75c-0.21875-0.082031-0.42969-0.14453-0.625-0.1875-0.19922-0.050781-0.38672-0.078125-0.5625-0.078125-0.1875 0-0.32812 0.027344-0.42188 0.078125-0.09375 0.042969-0.14062 0.11719-0.14062 0.21875 0 0.074219 0.035156 0.13281 0.10938 0.17188 0.070312 0.042969 0.19531 0.074219 0.375 0.09375l0.17188 0.03125c0.50781 0.0625 0.85156 0.17188 1.0312 0.32812 0.17578 0.14844 0.26562 0.375 0.26562 0.6875 0 0.33594-0.125 0.58594-0.375 0.75-0.24219 0.16797-0.60547 0.25-1.0938 0.25-0.21094 0-0.42188-0.015625-0.64062-0.046875s-0.44531-0.078125-0.67188-0.14062v-0.76562c0.19531 0.09375 0.39844 0.16797 0.60938 0.21875 0.20703 0.054688 0.42188 0.078125 0.64062 0.078125 0.1875 0 0.32812-0.023437 0.42188-0.078125 0.10156-0.0625 0.15625-0.14453 0.15625-0.25 0-0.082031-0.039063-0.14453-0.10938-0.1875-0.0625-0.050781-0.19531-0.085938-0.39062-0.10938l-0.17188-0.015625c-0.44922-0.0625-0.76172-0.16406-0.9375-0.3125-0.17969-0.15625-0.26562-0.38281-0.26562-0.6875 0-0.33203 0.10938-0.57812 0.32812-0.73438 0.22656-0.15625 0.57812-0.23438 1.0469-0.23438 0.1875 0 0.37891 0.015625 0.57812 0.046875 0.20703 0.023437 0.42969 0.0625 0.67188 0.125z"/>
  </symbol>
  <symbol id="r" overflow="visible">
   <path d="m2.5312-4.3281v0.65625h-0.54688c-0.14844 0-0.25 0.027344-0.3125 0.078125-0.054687 0.042969-0.078125 0.125-0.078125 0.25v0.21875h0.85938v0.71875h-0.85938v2.4062h-0.98438v-2.4062h-0.5v-0.71875h0.5v-0.21875c0-0.33203 0.09375-0.57812 0.28125-0.73438 0.1875-0.16406 0.47656-0.25 0.875-0.25z"/>
  </symbol>
  <symbol id="q" overflow="visible">
   <path d="m3.375-2.5938c0.125-0.19531 0.26953-0.34375 0.4375-0.4375 0.17578-0.10156 0.36719-0.15625 0.57812-0.15625 0.35156 0 0.625 0.10938 0.8125 0.32812s0.28125 0.53906 0.28125 0.95312v1.9062h-1v-1.625-0.0625c0.007813-0.03125 0.015625-0.070312 0.015625-0.125 0-0.21875-0.039062-0.375-0.10938-0.46875-0.0625-0.10156-0.16797-0.15625-0.3125-0.15625-0.1875 0-0.33594 0.078125-0.4375 0.23438-0.10547 0.15625-0.15625 0.38281-0.15625 0.67188v1.5312h-1v-1.625c0-0.34375-0.03125-0.5625-0.09375-0.65625-0.0625-0.10156-0.16797-0.15625-0.3125-0.15625-0.19922 0-0.35156 0.078125-0.45312 0.23438-0.10547 0.15625-0.15625 0.38281-0.15625 0.67188v1.5312h-1v-3.125h1v0.46875c0.125-0.17578 0.26562-0.30469 0.42188-0.39062 0.16406-0.09375 0.34375-0.14062 0.53125-0.14062 0.21875 0 0.40625 0.054688 0.5625 0.15625 0.16406 0.10547 0.29688 0.25 0.39062 0.4375z"/>
  </symbol>
  <symbol id="p" overflow="visible">
   <path d="m3.6094-1.9062v1.9062h-1v-1.4531c0-0.26953-0.007813-0.45312-0.015625-0.54688-0.011719-0.10156-0.03125-0.17969-0.0625-0.23438-0.042969-0.0625-0.10156-0.10938-0.17188-0.14062-0.0625-0.039062-0.13672-0.0625-0.21875-0.0625-0.21094 0-0.375 0.085938-0.5 0.25-0.11719 0.15625-0.17188 0.375-0.17188 0.65625v1.5312h-0.98438v-4.3281h0.98438v1.6719c0.15625-0.1875 0.31641-0.32031 0.48438-0.40625 0.16406-0.082031 0.35156-0.125 0.5625-0.125 0.36328 0 0.63281 0.10938 0.8125 0.32812 0.1875 0.21875 0.28125 0.53906 0.28125 0.95312z"/>
  </symbol>
  <symbol id="o" overflow="visible">
   <path d="m0.53125-4.1562h1.1875l1.5156 2.8438v-2.8438h1.0156v4.1562h-1.2031l-1.5-2.8594v2.8594h-1.0156z"/>
  </symbol>
  <symbol id="n" overflow="visible">
   <path d="m0.45312-1.2188v-1.9062h1v0.3125c0 0.17969-0.007813 0.39844-0.015625 0.65625v0.5c0 0.25 0.003906 0.43359 0.015625 0.54688 0.019531 0.10547 0.046875 0.18359 0.078125 0.23438 0.039062 0.0625 0.09375 0.11719 0.15625 0.15625 0.0625 0.03125 0.14062 0.046875 0.23438 0.046875 0.20703 0 0.36719-0.078125 0.48438-0.23438 0.11328-0.16406 0.17188-0.39062 0.17188-0.67188v-1.5469h1v3.125h-1v-0.45312c-0.14844 0.1875-0.30469 0.32422-0.46875 0.40625-0.16797 0.082031-0.35547 0.125-0.5625 0.125-0.35547 0-0.625-0.10938-0.8125-0.32812s-0.28125-0.53906-0.28125-0.96875z"/>
  </symbol>
  <symbol id="m" overflow="visible">
   <path d="m0.53125-4.1562h1.7656c0.53125 0 0.9375 0.12109 1.2188 0.35938 0.28906 0.23047 0.4375 0.5625 0.4375 1s-0.14844 0.77734-0.4375 1.0156c-0.28125 0.23047-0.6875 0.34375-1.2188 0.34375h-0.70312v1.4375h-1.0625zm1.0625 0.78125v1.1562h0.59375c0.20703 0 0.36719-0.046875 0.48438-0.14062 0.11328-0.10156 0.17188-0.25 0.17188-0.4375s-0.058594-0.32812-0.17188-0.42188c-0.11719-0.10156-0.27734-0.15625-0.48438-0.15625z"/>
  </symbol>
  <symbol id="l" overflow="visible">
   <path d="m0.48438-3.125h0.98438v3.0625c0 0.42578-0.10156 0.75-0.29688 0.96875-0.19922 0.21875-0.49219 0.32812-0.875 0.32812h-0.48438v-0.65625h0.17188c0.1875 0 0.31641-0.046875 0.39062-0.14062 0.070312-0.085938 0.10938-0.25 0.10938-0.5zm0-1.2031h0.98438v0.8125h-0.98438z"/>
  </symbol>
 </defs>
 <g>
  <path d="m516.41 527.19h-332.81c-31.902 0-57.766-25.863-57.766-57.766v-310.82c0-2.9609 2.3945-5.3555 5.3555-5.3555 2.9609 0 5.3555 2.3945 5.3555 5.3555v310.82c0 25.863 21.078 46.941 46.941 46.941h332.81c25.863 0 46.941-21.078 46.941-46.941v-378.95c0-25.863-21.078-46.941-46.941-46.941l-264.67-0.003906c-2.9609 0-5.3555-2.3945-5.3555-5.3555 0-2.9609 2.3945-5.3555 5.3555-5.3555h264.9c31.789 0 57.766 25.863 57.766 57.766v378.95c-0.11328 31.793-25.977 57.656-57.879 57.656z" fill-rule="evenodd"/>
  <path d="m144.29 153.13h101.97l0.003907-101.86c-0.11328 0-101.98 101.86-101.98 101.86zm107.33 10.824h-120.43c-2.1641 0-4.1016-1.3672-5.0117-3.3047-0.79688-2.0508-0.34375-4.3281 1.1406-5.9258l120.43-120.32c1.5938-1.5938 3.875-2.0508 5.9258-1.1406 2.0508 0.79688 3.3047 2.8477 3.3047 5.0117v120.32c-0.003906 2.9648-2.3945 5.3594-5.3555 5.3594z" fill-rule="evenodd"/>
  <path d="m308.47 193.92c-52.867 0-95.82 42.953-95.82 95.82 0 52.867 42.953 95.82 95.82 95.82s95.82-42.953 95.82-95.82c0-52.867-42.953-95.82-95.82-95.82zm0 202.46c-58.793 0-106.64-47.852-106.64-106.64 0-58.793 47.852-106.64 106.64-106.64s106.64 47.852 106.64 106.64c0 58.789-47.852 106.64-106.64 106.64z" fill-rule="evenodd"/>
  <path d="m405.32 386.59m13.559-0.23047c-3.6445 0-7.1797 1.4805-9.6836 3.9883-2.6211 2.6211-3.9883 6.0391-3.9883 9.6836s1.3672 7.1797 3.9883 9.6836l72.578 72.578c2.6211 2.6211 6.0391 3.9883 9.6836 3.9883s7.1797-1.4805 9.6836-3.9883c2.6211-2.6211 3.9883-6.0391 3.9883-9.6836s-1.3672-7.1797-3.9883-9.6836l-72.578-72.578c-2.5039-2.5078-6.0391-3.9883-9.6836-3.9883zm72.578 110.86c-6.6094 0-12.762-2.5078-17.32-7.1797l-72.578-72.578c-4.6719-4.6719-7.1797-10.824-7.1797-17.32 0-6.6094 2.5078-12.762 7.1797-17.32 4.6719-4.6719 10.824-7.1797 17.32-7.1797 6.6094 0 12.762 2.5078 17.32 7.1797l72.578 72.578c4.6719 4.6719 7.1797 10.824 7.1797 17.32 0 6.6094-2.5078 12.762-7.1797 17.32-4.5586 4.6719-10.711 7.1797-17.32 7.1797z" fill-rule="evenodd"/>
  <path d="m405.32 391.94c-1.3672 0-2.7344-0.57031-3.7617-1.5938l-25.293-25.293c-2.1641-2.0508-2.1641-5.4688 0-7.6328 2.0508-2.0508 5.4688-2.0508 7.6328 0l25.293 25.293c2.0508 2.0508 2.0508 5.4688 0 7.6328-1.1367 1.0273-2.5039 1.5938-3.8711 1.5938z" fill-rule="evenodd"/>
  <use x="70" y="577.089844" xlink:href="#u"/>
  <use x="74.179688" y="577.089844" xlink:href="#e"/>
  <use x="76.992188" y="577.089844" xlink:href="#a"/>
  <use x="80.855469" y="577.089844" xlink:href="#d"/>
  <use x="84.699219" y="577.089844" xlink:href="#c"/>
  <use x="87.421875" y="577.089844" xlink:href="#a"/>
  <use x="91.285156" y="577.089844" xlink:href="#k"/>
  <use x="97.347656" y="577.089844" xlink:href="#j"/>
  <use x="101.425781" y="577.089844" xlink:href="#i"/>
  <use x="107.121094" y="577.089844" xlink:href="#h"/>
  <use x="112.789062" y="577.089844" xlink:href="#d"/>
  <use x="116.632812" y="577.089844" xlink:href="#d"/>
  <use x="120.480469" y="577.089844" xlink:href="#f"/>
  <use x="126.519531" y="577.089844" xlink:href="#t"/>
  <use x="128.636719" y="577.089844" xlink:href="#g"/>
  <use x="132.015625" y="577.089844" xlink:href="#b"/>
  <use x="135.929688" y="577.089844" xlink:href="#f"/>
  <use x="139.984375" y="577.089844" xlink:href="#s"/>
  <use x="70" y="582.789062" xlink:href="#r"/>
  <use x="72.476562" y="582.789062" xlink:href="#e"/>
  <use x="75.289062" y="582.789062" xlink:href="#b"/>
  <use x="79.203125" y="582.789062" xlink:href="#q"/>
  <use x="87.121094" y="582.789062" xlink:href="#c"/>
  <use x="89.84375" y="582.789062" xlink:href="#p"/>
  <use x="93.898438" y="582.789062" xlink:href="#a"/>
  <use x="99.746094" y="582.789062" xlink:href="#o"/>
  <use x="104.515625" y="582.789062" xlink:href="#b"/>
  <use x="108.429688" y="582.789062" xlink:href="#n"/>
  <use x="112.484375" y="582.789062" xlink:href="#f"/>
  <use x="118.523438" y="582.789062" xlink:href="#m"/>
  <use x="122.699219" y="582.789062" xlink:href="#e"/>
  <use x="125.507812" y="582.789062" xlink:href="#b"/>
  <use x="129.421875" y="582.789062" xlink:href="#l"/>
  <use x="131.375" y="582.789062" xlink:href="#a"/>
  <use x="135.238281" y="582.789062" xlink:href="#g"/>
  <use x="138.617188" y="582.789062" xlink:href="#c"/>
 </g>
</svg>
